<?xml version="1.0" encoding="utf-8" standalone="no"?>
<!DOCTYPE svg PUBLIC "-//W3C//DTD SVG 1.1//EN"
  "http://www.w3.org/Graphics/SVG/1.1/DTD/svg11.dtd">
<svg height="216pt" version="1.1" viewBox="0 0 288 216" width="288pt" xmlns="http://www.w3.org/2000/svg" xmlns:xlink="http://www.w3.org/1999/xlink">
 <metadata>
  <rdf:RDF xmlns:cc="http://creativecommons.org/ns#" xmlns:dc="http://purl.org/dc/elements/1.1/" xmlns:rdf="http://www.w3.org/1999/02/22-rdf-syntax-ns#">
   <cc:Work>
    <dc:type rdf:resource="http://purl.org/dc/dcmitype/StillImage"/>
    <dc:date>2022-07-28T14:38:35.469236</dc:date>
    <dc:format>image/svg+xml</dc:format>
    <dc:creator>
     <cc:Agent>
      <dc:title>Matplotlib v3.4.2, https://matplotlib.org/</dc:title>
     </cc:Agent>
    </dc:creator>
   </cc:Work>
  </rdf:RDF>
 </metadata>
 <defs>
  <style type="text/css">*{stroke-linecap:butt;stroke-linejoin:round;}</style>
 </defs>
 <g id="figure_1">
  <g id="patch_1">
   <path d="M 0 216 
L 288 216 
L 288 0 
L 0 0 
z
" style="fill:#ffffff;"/>
  </g>
  <g id="axes_1">
   <g id="patch_2">
    <path d="M 24.365188 198.145354 
L 281.541832 198.145354 
L 281.541832 2.834646 
L 24.365188 2.834646 
z
" style="fill:#ffffff;"/>
   </g>
   <g id="line2d_1">
    <path clip-path="url(#p0ad8a4c3d8)" d="M 31.643772 108.978133 
L 32.129983 109.681723 
L 33.102406 111.994785 
L 34.56104 115.873188 
L 35.047252 116.829977 
L 35.533463 117.513946 
L 36.019674 117.919203 
L 36.505886 118.072755 
L 36.992097 118.022817 
L 37.96452 117.527956 
L 38.936943 116.723 
L 39.909365 115.624742 
L 41.854211 112.990582 
L 42.340422 112.649819 
L 42.826634 112.638398 
L 43.312845 113.027732 
L 43.799056 113.844966 
L 44.285268 115.063932 
L 45.25769 118.382078 
L 46.716325 123.817902 
L 47.688747 126.673174 
L 48.66117 128.749212 
L 51.578438 133.861843 
L 52.06465 134.4177 
L 52.550861 134.586874 
L 53.037072 134.220967 
L 53.523284 133.208445 
L 54.009495 131.501454 
L 54.495707 129.130659 
L 55.468129 122.900198 
L 56.926763 112.916464 
L 57.899186 108.236099 
L 58.385398 106.894497 
L 58.871609 106.282148 
L 59.35782 106.386472 
L 59.844032 107.154111 
L 60.330243 108.495063 
L 61.302666 112.392351 
L 62.7613 118.951882 
L 63.733723 122.09146 
L 64.219934 123.01364 
L 64.706145 123.481507 
L 65.192357 123.533587 
L 65.678568 123.241651 
L 66.650991 121.991088 
L 68.109625 119.734228 
L 69.082048 118.656449 
L 69.568259 118.337171 
L 70.054471 118.174063 
L 71.026893 118.244678 
L 72.485527 118.643009 
L 73.45795 118.554622 
L 74.430373 118.254672 
L 74.916584 118.213144 
L 75.402796 118.375401 
L 75.889007 118.824806 
L 76.375218 119.610785 
L 76.86143 120.739806 
L 77.833853 123.854117 
L 80.751121 134.425857 
L 81.723544 136.818307 
L 82.209755 137.673655 
L 82.695966 138.289613 
L 83.182178 138.666137 
L 83.668389 138.811438 
L 84.1546 138.735247 
L 84.640812 138.447439 
L 85.127023 137.952671 
L 85.613235 137.252495 
L 86.585657 135.251562 
L 87.55808 132.589357 
L 89.502926 126.94479 
L 90.475348 124.813612 
L 91.447771 123.295762 
L 95.823673 118.031548 
L 96.309885 117.635906 
L 96.796096 117.417201 
L 97.282308 117.386825 
L 97.768519 117.526391 
L 100.199576 118.783495 
L 100.685787 118.733007 
L 101.171999 118.509213 
L 102.144421 117.60599 
L 105.06169 114.11746 
L 106.520324 112.625444 
L 107.978958 110.951735 
L 108.465169 110.544627 
L 108.951381 110.34792 
L 109.437592 110.441759 
L 109.923803 110.889279 
L 110.410015 111.726006 
L 110.896226 112.956354 
L 111.868649 116.465165 
L 114.785917 129.066429 
L 115.272128 130.399906 
L 115.75834 131.322766 
L 116.244551 131.816616 
L 116.730763 131.889053 
L 117.216974 131.571695 
L 117.703185 130.91758 
L 118.675608 128.904035 
L 120.134242 125.548794 
L 120.620454 124.711886 
L 121.106665 124.125174 
L 121.592876 123.814169 
L 122.079088 123.775029 
L 122.565299 123.976412 
L 123.537722 124.861947 
L 124.510145 125.838001 
L 124.996356 126.121587 
L 125.482567 126.143137 
L 125.968779 125.824425 
L 126.45499 125.11325 
L 126.941201 123.993187 
L 127.913624 120.686715 
L 129.85847 113.066527 
L 130.344681 111.806474 
L 130.830892 111.041619 
L 131.317104 110.827907 
L 131.803315 111.18243 
L 132.289527 112.084414 
L 132.775738 113.480376 
L 133.748161 117.394228 
L 135.693006 126.013551 
L 136.179218 127.505097 
L 136.665429 128.530362 
L 137.15164 129.072684 
L 137.637852 129.174364 
L 138.124063 128.932871 
L 139.582697 127.621096 
L 140.068909 127.49086 
L 140.55512 127.69623 
L 141.041331 128.271597 
L 141.527543 129.191678 
L 142.499965 131.715391 
L 143.472388 134.294045 
L 143.9586 135.289667 
L 144.444811 135.976052 
L 144.931022 136.320015 
L 145.417234 136.327911 
L 145.903445 136.037016 
L 146.389656 135.499585 
L 147.362079 133.868821 
L 148.334502 131.591374 
L 149.306925 128.451229 
L 150.279347 124.172278 
L 152.710404 112.006053 
L 153.196616 110.676609 
L 153.682827 110.109211 
L 154.169038 110.365422 
L 154.65525 111.424558 
L 155.141461 113.190231 
L 156.113884 118.199773 
L 157.572518 126.61385 
L 158.544941 130.941111 
L 159.031152 132.366192 
L 159.517364 133.198692 
L 160.003575 133.406445 
L 160.489786 133.002132 
L 160.975998 132.050994 
L 161.94842 129.016615 
L 163.407055 124.166489 
L 163.893266 123.031837 
L 164.379477 122.221957 
L 164.865689 121.688492 
L 166.324323 120.631203 
L 166.810534 120.049985 
L 167.296746 119.211162 
L 168.269168 116.732543 
L 170.214014 110.710415 
L 170.700225 109.697784 
L 171.186437 109.132368 
L 171.672648 109.099 
L 172.158859 109.642109 
L 172.645071 110.755467 
L 173.131282 112.379016 
L 174.103705 116.693984 
L 175.562339 123.486818 
L 176.04855 125.223192 
L 176.534762 126.495484 
L 177.020973 127.220875 
L 177.507184 127.343363 
L 177.993396 126.834396 
L 178.479607 125.700395 
L 178.965819 123.986415 
L 179.938241 119.220274 
L 181.396875 111.174687 
L 181.883087 109.007395 
L 182.369298 107.373221 
L 182.85551 106.381022 
L 183.341721 106.089724 
L 183.827932 106.50404 
L 184.314144 107.574083 
L 184.800355 109.196491 
L 187.231412 119.370473 
L 187.717623 120.472965 
L 188.203835 120.972968 
L 188.690046 120.880335 
L 189.176257 120.277242 
L 190.14868 118.115587 
L 191.121103 115.730854 
L 192.093526 114.017998 
L 192.579737 113.527416 
L 193.065948 113.287926 
L 193.55216 113.29446 
L 194.038371 113.542357 
L 194.524583 114.029172 
L 195.010794 114.750454 
L 195.983217 116.829597 
L 197.441851 120.948268 
L 199.386696 126.400393 
L 200.84533 129.72639 
L 201.331542 130.534016 
L 201.817753 131.064907 
L 202.303965 131.222855 
L 202.790176 130.924084 
L 203.276387 130.120105 
L 203.762599 128.817844 
L 204.735021 125.064999 
L 206.193656 119.081666 
L 206.679867 117.717212 
L 207.166078 116.872982 
L 207.65229 116.588474 
L 208.138501 116.848041 
L 208.624712 117.597314 
L 209.110924 118.759515 
L 210.083347 121.997651 
L 212.028192 130.156907 
L 213.000615 133.919055 
L 213.486826 135.398655 
L 213.973038 136.474391 
L 214.459249 137.057574 
L 214.94546 137.083922 
L 215.431672 136.523705 
L 215.917883 135.388888 
L 216.404094 133.733472 
L 217.376517 129.280286 
L 218.835151 122.002368 
L 219.807574 118.570163 
L 220.293785 117.595647 
L 220.779997 117.14046 
L 221.266208 117.150079 
L 221.75242 117.521164 
L 223.697265 119.90456 
L 224.183476 120.202751 
L 224.669688 120.327174 
L 226.128322 120.37777 
L 226.614533 120.601583 
L 227.100745 121.058613 
L 227.586956 121.783772 
L 228.559379 124.007826 
L 230.018013 128.572996 
L 231.962858 134.802598 
L 233.421493 138.928894 
L 234.393915 141.143844 
L 234.880127 141.920484 
L 235.366338 142.378523 
L 235.852549 142.454475 
L 236.338761 142.103577 
L 236.824972 141.306321 
L 237.311184 140.066397 
L 238.283606 136.381081 
L 239.256029 131.437809 
L 242.659509 112.670237 
L 243.631931 108.753821 
L 244.604354 105.529227 
L 245.576777 102.826022 
L 246.5492 100.758382 
L 247.035411 100.09022 
L 247.521622 99.748539 
L 248.007834 99.779402 
L 248.494045 100.200619 
L 248.980257 100.994865 
L 249.952679 103.48968 
L 251.411313 108.42248 
L 252.869948 113.383469 
L 253.84237 116.004126 
L 254.328582 116.900207 
L 254.814793 117.427695 
L 255.301004 117.542167 
L 255.787216 117.235751 
L 256.273427 116.543368 
L 257.24585 114.359559 
L 258.218273 111.969433 
L 258.704484 111.01915 
L 259.190695 110.343898 
L 259.676907 109.963012 
L 260.163118 109.840417 
L 261.135541 110.037805 
L 262.107964 110.234379 
L 264.052809 110.208892 
L 265.025232 110.698993 
L 265.997655 111.356974 
L 266.483866 111.49764 
L 266.970077 111.384125 
L 267.456289 110.97521 
L 268.428712 109.442298 
L 269.401134 107.787381 
L 269.887346 107.302929 
L 270.373557 107.213451 
L 270.859768 107.577196 
L 271.34598 108.388005 
L 272.318403 111.050301 
L 273.777037 115.758894 
L 274.263248 117.035215 
L 274.263248 117.035215 
" style="fill:none;stroke:#009afa;stroke-width:2;"/>
   </g>
   <g id="matplotlib.axis_1">
    <g id="xtick_1">
     <g id="line2d_2">
      <defs>
       <path d="M 0 0 
L 0 -2.5 
" id="m694984fa5d" style="stroke:#000000;stroke-width:0.5;"/>
      </defs>
      <g>
       <use style="stroke:#000000;stroke-width:0.5;" x="31.157561" xlink:href="#m694984fa5d" y="198.145354"/>
      </g>
     </g>
     <g id="text_1">
      <!-- $\mathregular{0}$ -->
      <g transform="translate(27.317561 210.763479)scale(0.12 -0.12)">
       <defs>
        <path d="M 2034 4250 
Q 1547 4250 1301 3770 
Q 1056 3291 1056 2328 
Q 1056 1369 1301 889 
Q 1547 409 2034 409 
Q 2525 409 2770 889 
Q 3016 1369 3016 2328 
Q 3016 3291 2770 3770 
Q 2525 4250 2034 4250 
z
M 2034 4750 
Q 2819 4750 3233 4129 
Q 3647 3509 3647 2328 
Q 3647 1150 3233 529 
Q 2819 -91 2034 -91 
Q 1250 -91 836 529 
Q 422 1150 422 2328 
Q 422 3509 836 4129 
Q 1250 4750 2034 4750 
z
" id="DejaVuSans-30" transform="scale(0.015625)"/>
       </defs>
       <use transform="translate(0 0.78125)" xlink:href="#DejaVuSans-30"/>
      </g>
     </g>
    </g>
    <g id="xtick_2">
     <g id="line2d_3">
      <g>
       <use style="stroke:#000000;stroke-width:0.5;" x="79.778698" xlink:href="#m694984fa5d" y="198.145354"/>
      </g>
     </g>
     <g id="text_2">
      <!-- $\mathregular{100}$ -->
      <g transform="translate(68.318698 210.763479)scale(0.12 -0.12)">
       <defs>
        <path d="M 794 531 
L 1825 531 
L 1825 4091 
L 703 3866 
L 703 4441 
L 1819 4666 
L 2450 4666 
L 2450 531 
L 3481 531 
L 3481 0 
L 794 0 
L 794 531 
z
" id="DejaVuSans-31" transform="scale(0.015625)"/>
       </defs>
       <use transform="translate(0 0.78125)" xlink:href="#DejaVuSans-31"/>
       <use transform="translate(63.623047 0.78125)" xlink:href="#DejaVuSans-30"/>
       <use transform="translate(127.246094 0.78125)" xlink:href="#DejaVuSans-30"/>
      </g>
     </g>
    </g>
    <g id="xtick_3">
     <g id="line2d_4">
      <g>
       <use style="stroke:#000000;stroke-width:0.5;" x="128.399836" xlink:href="#m694984fa5d" y="198.145354"/>
      </g>
     </g>
     <g id="text_3">
      <!-- $\mathregular{200}$ -->
      <g transform="translate(116.939836 210.763479)scale(0.12 -0.12)">
       <defs>
        <path d="M 1228 531 
L 3431 531 
L 3431 0 
L 469 0 
L 469 531 
Q 828 903 1448 1529 
Q 2069 2156 2228 2338 
Q 2531 2678 2651 2914 
Q 2772 3150 2772 3378 
Q 2772 3750 2511 3984 
Q 2250 4219 1831 4219 
Q 1534 4219 1204 4116 
Q 875 4013 500 3803 
L 500 4441 
Q 881 4594 1212 4672 
Q 1544 4750 1819 4750 
Q 2544 4750 2975 4387 
Q 3406 4025 3406 3419 
Q 3406 3131 3298 2873 
Q 3191 2616 2906 2266 
Q 2828 2175 2409 1742 
Q 1991 1309 1228 531 
z
" id="DejaVuSans-32" transform="scale(0.015625)"/>
       </defs>
       <use transform="translate(0 0.78125)" xlink:href="#DejaVuSans-32"/>
       <use transform="translate(63.623047 0.78125)" xlink:href="#DejaVuSans-30"/>
       <use transform="translate(127.246094 0.78125)" xlink:href="#DejaVuSans-30"/>
      </g>
     </g>
    </g>
    <g id="xtick_4">
     <g id="line2d_5">
      <g>
       <use style="stroke:#000000;stroke-width:0.5;" x="177.020973" xlink:href="#m694984fa5d" y="198.145354"/>
      </g>
     </g>
     <g id="text_4">
      <!-- $\mathregular{300}$ -->
      <g transform="translate(165.560973 210.763479)scale(0.12 -0.12)">
       <defs>
        <path d="M 2597 2516 
Q 3050 2419 3304 2112 
Q 3559 1806 3559 1356 
Q 3559 666 3084 287 
Q 2609 -91 1734 -91 
Q 1441 -91 1130 -33 
Q 819 25 488 141 
L 488 750 
Q 750 597 1062 519 
Q 1375 441 1716 441 
Q 2309 441 2620 675 
Q 2931 909 2931 1356 
Q 2931 1769 2642 2001 
Q 2353 2234 1838 2234 
L 1294 2234 
L 1294 2753 
L 1863 2753 
Q 2328 2753 2575 2939 
Q 2822 3125 2822 3475 
Q 2822 3834 2567 4026 
Q 2313 4219 1838 4219 
Q 1578 4219 1281 4162 
Q 984 4106 628 3988 
L 628 4550 
Q 988 4650 1302 4700 
Q 1616 4750 1894 4750 
Q 2613 4750 3031 4423 
Q 3450 4097 3450 3541 
Q 3450 3153 3228 2886 
Q 3006 2619 2597 2516 
z
" id="DejaVuSans-33" transform="scale(0.015625)"/>
       </defs>
       <use transform="translate(0 0.78125)" xlink:href="#DejaVuSans-33"/>
       <use transform="translate(63.623047 0.78125)" xlink:href="#DejaVuSans-30"/>
       <use transform="translate(127.246094 0.78125)" xlink:href="#DejaVuSans-30"/>
      </g>
     </g>
    </g>
    <g id="xtick_5">
     <g id="line2d_6">
      <g>
       <use style="stroke:#000000;stroke-width:0.5;" x="225.642111" xlink:href="#m694984fa5d" y="198.145354"/>
      </g>
     </g>
     <g id="text_5">
      <!-- $\mathregular{400}$ -->
      <g transform="translate(214.182111 210.763479)scale(0.12 -0.12)">
       <defs>
        <path d="M 2419 4116 
L 825 1625 
L 2419 1625 
L 2419 4116 
z
M 2253 4666 
L 3047 4666 
L 3047 1625 
L 3713 1625 
L 3713 1100 
L 3047 1100 
L 3047 0 
L 2419 0 
L 2419 1100 
L 313 1100 
L 313 1709 
L 2253 4666 
z
" id="DejaVuSans-34" transform="scale(0.015625)"/>
       </defs>
       <use transform="translate(0 0.78125)" xlink:href="#DejaVuSans-34"/>
       <use transform="translate(63.623047 0.78125)" xlink:href="#DejaVuSans-30"/>
       <use transform="translate(127.246094 0.78125)" xlink:href="#DejaVuSans-30"/>
      </g>
     </g>
    </g>
    <g id="xtick_6">
     <g id="line2d_7">
      <g>
       <use style="stroke:#000000;stroke-width:0.5;" x="274.263248" xlink:href="#m694984fa5d" y="198.145354"/>
      </g>
     </g>
     <g id="text_6">
      <!-- $\mathregular{500}$ -->
      <g transform="translate(262.803248 210.763479)scale(0.12 -0.12)">
       <defs>
        <path d="M 691 4666 
L 3169 4666 
L 3169 4134 
L 1269 4134 
L 1269 2991 
Q 1406 3038 1543 3061 
Q 1681 3084 1819 3084 
Q 2600 3084 3056 2656 
Q 3513 2228 3513 1497 
Q 3513 744 3044 326 
Q 2575 -91 1722 -91 
Q 1428 -91 1123 -41 
Q 819 9 494 109 
L 494 744 
Q 775 591 1075 516 
Q 1375 441 1709 441 
Q 2250 441 2565 725 
Q 2881 1009 2881 1497 
Q 2881 1984 2565 2268 
Q 2250 2553 1709 2553 
Q 1456 2553 1204 2497 
Q 953 2441 691 2322 
L 691 4666 
z
" id="DejaVuSans-35" transform="scale(0.015625)"/>
       </defs>
       <use transform="translate(0 0.78125)" xlink:href="#DejaVuSans-35"/>
       <use transform="translate(63.623047 0.78125)" xlink:href="#DejaVuSans-30"/>
       <use transform="translate(127.246094 0.78125)" xlink:href="#DejaVuSans-30"/>
      </g>
     </g>
    </g>
   </g>
   <g id="matplotlib.axis_2">
    <g id="ytick_1">
     <g id="line2d_8">
      <defs>
       <path d="M 0 0 
L 2.5 0 
" id="m0d511447e4" style="stroke:#000000;stroke-width:0.5;"/>
      </defs>
      <g>
       <use style="stroke:#000000;stroke-width:0.5;" x="24.365188" xlink:href="#m0d511447e4" y="168.619172"/>
      </g>
     </g>
     <g id="text_7">
      <!-- $\mathregular{-5}$ -->
      <g transform="translate(3.105188 173.178234)scale(0.12 -0.12)">
       <defs>
        <path d="M 678 2272 
L 4684 2272 
L 4684 1741 
L 678 1741 
L 678 2272 
z
" id="DejaVuSans-2212" transform="scale(0.015625)"/>
       </defs>
       <use transform="translate(0 0.09375)" xlink:href="#DejaVuSans-2212"/>
       <use transform="translate(83.789062 0.09375)" xlink:href="#DejaVuSans-35"/>
      </g>
     </g>
    </g>
    <g id="ytick_2">
     <g id="line2d_9">
      <g>
       <use style="stroke:#000000;stroke-width:0.5;" x="24.365188" xlink:href="#m0d511447e4" y="121.326991"/>
      </g>
     </g>
     <g id="text_8">
      <!-- $\mathregular{0}$ -->
      <g transform="translate(13.185188 125.886053)scale(0.12 -0.12)">
       <use transform="translate(0 0.78125)" xlink:href="#DejaVuSans-30"/>
      </g>
     </g>
    </g>
    <g id="ytick_3">
     <g id="line2d_10">
      <g>
       <use style="stroke:#000000;stroke-width:0.5;" x="24.365188" xlink:href="#m0d511447e4" y="74.03481"/>
      </g>
     </g>
     <g id="text_9">
      <!-- $\mathregular{5}$ -->
      <g transform="translate(13.185188 78.593872)scale(0.12 -0.12)">
       <use transform="translate(0 0.09375)" xlink:href="#DejaVuSans-35"/>
      </g>
     </g>
    </g>
    <g id="ytick_4">
     <g id="line2d_11">
      <g>
       <use style="stroke:#000000;stroke-width:0.5;" x="24.365188" xlink:href="#m0d511447e4" y="26.742629"/>
      </g>
     </g>
     <g id="text_10">
      <!-- $\mathregular{10}$ -->
      <g transform="translate(5.505188 31.301691)scale(0.12 -0.12)">
       <use transform="translate(0 0.78125)" xlink:href="#DejaVuSans-31"/>
       <use transform="translate(63.623047 0.78125)" xlink:href="#DejaVuSans-30"/>
      </g>
     </g>
    </g>
   </g>
   <g id="line2d_12">
    <path clip-path="url(#p0ad8a4c3d8)" d="M 31.643772 60.813075 
L 33.102406 60.821889 
L 34.56104 61.027474 
L 36.019674 61.418697 
L 37.96452 62.20608 
L 39.909365 63.264655 
L 41.854211 64.557689 
L 44.285268 66.445278 
L 47.202536 69.009778 
L 52.06465 73.668963 
L 55.954341 77.321005 
L 58.385398 79.329534 
L 60.330243 80.669957 
L 62.275089 81.701685 
L 63.733723 82.245994 
L 65.192357 82.584916 
L 66.650991 82.72571 
L 68.595836 82.643092 
L 71.026893 82.237961 
L 74.916584 81.489685 
L 76.86143 81.359551 
L 78.320064 81.456105 
L 79.778698 81.744765 
L 81.237332 82.225978 
L 83.182178 83.131836 
L 86.099446 84.836493 
L 89.016714 86.482922 
L 90.475348 87.095034 
L 91.933982 87.469733 
L 93.392617 87.546982 
L 94.365039 87.409506 
L 95.337462 87.10979 
L 96.309885 86.642596 
L 97.768519 85.626138 
L 99.227153 84.24364 
L 100.685787 82.528124 
L 102.630633 79.811964 
L 105.06169 75.952929 
L 110.410015 67.261805 
L 112.35486 64.495098 
L 114.299706 62.075082 
L 116.244551 60.020548 
L 118.189397 58.314773 
L 120.134242 56.922263 
L 122.079088 55.807434 
L 124.023933 54.951139 
L 125.968779 54.359439 
L 127.427413 54.108575 
L 128.886047 54.046027 
L 130.344681 54.195756 
L 131.803315 54.580893 
L 133.261949 55.218401 
L 134.720583 56.115454 
L 136.179218 57.267326 
L 138.124063 59.164543 
L 140.068909 61.397966 
L 142.986177 65.123482 
L 147.362079 70.701226 
L 149.793136 73.419531 
L 151.737982 75.306975 
L 153.682827 76.931394 
L 155.627673 78.311647 
L 158.058729 79.745412 
L 160.489786 80.920152 
L 163.407055 82.068501 
L 166.324323 82.984172 
L 169.241591 83.672064 
L 171.672648 84.039449 
L 174.103705 84.165958 
L 176.04855 84.049384 
L 177.993396 83.701494 
L 179.938241 83.093337 
L 181.883087 82.209381 
L 183.827932 81.055975 
L 186.258989 79.289534 
L 190.14868 76.065245 
L 192.579737 74.151994 
L 194.524583 72.8949 
L 195.983217 72.197951 
L 197.441851 71.761621 
L 198.900485 71.614437 
L 200.359119 71.766586 
L 201.817753 72.204648 
L 203.276387 72.892091 
L 205.221233 74.088755 
L 209.110924 76.652164 
L 210.569558 77.362442 
L 212.028192 77.788747 
L 213.000615 77.880032 
L 213.973038 77.80097 
L 214.94546 77.544247 
L 215.917883 77.111563 
L 217.376517 76.152695 
L 218.835151 74.877016 
L 220.779997 72.84631 
L 224.183476 69.192278 
L 225.642111 67.912486 
L 227.100745 66.957205 
L 228.073167 66.535038 
L 229.04559 66.298897 
L 230.018013 66.252073 
L 230.990436 66.38976 
L 231.962858 66.701684 
L 233.421493 67.454988 
L 234.880127 68.477625 
L 237.311184 70.508705 
L 240.228452 72.883507 
L 241.687086 73.822886 
L 243.14572 74.498883 
L 244.604354 74.862754 
L 245.576777 74.917633 
L 246.5492 74.819012 
L 248.007834 74.387144 
L 249.466468 73.635403 
L 250.925102 72.603126 
L 252.869948 70.887 
L 255.787216 67.918982 
L 258.704484 65.015089 
L 260.64933 63.388206 
L 262.107964 62.417847 
L 263.566598 61.69593 
L 265.025232 61.233956 
L 266.483866 61.026718 
L 267.9425 61.054215 
L 269.401134 61.285064 
L 271.34598 61.841174 
L 273.777037 62.79529 
L 274.263248 63.005424 
L 274.263248 63.005424 
" style="fill:none;stroke:#e36f47;stroke-width:2;"/>
   </g>
   <g id="patch_3">
    <path d="M 24.365188 198.145354 
L 24.365188 2.834646 
" style="fill:none;stroke:#000000;stroke-linecap:square;stroke-linejoin:miter;"/>
   </g>
   <g id="patch_4">
    <path d="M 24.365188 198.145354 
L 281.541832 198.145354 
" style="fill:none;stroke:#000000;stroke-linecap:square;stroke-linejoin:miter;"/>
   </g>
   <g id="line2d_13">
    <path clip-path="url(#p0ad8a4c3d8)" d="M 31.643772 32.173083 
L 35.533463 29.810041 
L 43.799056 24.680036 
L 46.716325 23.146929 
L 49.147381 22.07447 
L 51.578438 21.223933 
L 54.009495 20.616767 
L 56.440552 20.264968 
L 58.871609 20.169994 
L 61.302666 20.323608 
L 63.733723 20.707273 
L 66.16478 21.295587 
L 69.082048 22.225075 
L 72.971739 23.731408 
L 83.182178 27.884687 
L 86.585657 28.940779 
L 89.502926 29.602296 
L 92.420194 30.008109 
L 95.337462 30.15055 
L 98.25473 30.040592 
L 101.171999 29.707925 
L 104.575478 29.098006 
L 109.437592 27.981832 
L 117.216974 26.194926 
L 121.592876 25.442327 
L 125.968779 24.932676 
L 131.317104 24.561657 
L 141.041331 23.938288 
L 145.417234 23.412651 
L 149.793136 22.658196 
L 154.169038 21.686405 
L 159.517364 20.262593 
L 165.838111 18.339607 
L 172.645071 16.042532 
L 190.14868 9.934201 
L 193.55216 9.104287 
L 196.469428 8.616698 
L 199.386696 8.379732 
L 201.817753 8.397461 
L 204.24881 8.62493 
L 206.679867 9.068807 
L 209.110924 9.728918 
L 211.541981 10.598368 
L 214.459249 11.898923 
L 217.376517 13.445607 
L 220.779997 15.496417 
L 226.128322 19.020833 
L 231.476647 22.495646 
L 234.880127 24.440572 
L 237.797395 25.820804 
L 240.228452 26.71181 
L 242.659509 27.330607 
L 244.604354 27.613089 
L 246.5492 27.699744 
L 248.494045 27.589809 
L 250.438891 27.288965 
L 252.869948 26.662659 
L 255.301004 25.792745 
L 258.218273 24.498284 
L 263.080386 22.018027 
L 267.456289 19.850954 
L 270.373557 18.654526 
L 272.804614 17.900195 
L 274.263248 17.575057 
L 274.263248 17.575057 
" style="fill:none;stroke:#3ea44e;stroke-width:2;"/>
   </g>
   <g id="line2d_14">
    <path clip-path="url(#p0ad8a4c3d8)" d="M 31.643772 160.908667 
L 32.129983 166.243059 
L 32.616195 172.899961 
L 33.102406 171.170045 
L 33.588617 169.005041 
L 34.56104 189.848574 
L 35.047252 192.230057 
L 35.533463 187.949295 
L 36.019674 180.146763 
L 36.505886 174.556476 
L 36.992097 175.18529 
L 37.96452 163.092786 
L 38.450731 165.920676 
L 38.936943 172.031078 
L 39.423154 174.799537 
L 39.909365 176.839408 
L 40.395577 174.475319 
L 40.881788 170.63913 
L 41.854211 178.998836 
L 42.340422 177.781645 
L 42.826634 178.069326 
L 43.312845 177.706825 
L 43.799056 177.52852 
L 44.285268 172.812516 
L 44.771479 166.465348 
L 45.25769 164.937976 
L 45.743902 164.090462 
L 46.230113 166.311284 
L 46.716325 175.320076 
L 47.202536 180.49517 
L 47.688747 179.411535 
L 48.174959 179.002294 
L 49.147381 155.230652 
L 50.119804 164.435973 
L 50.606016 163.829987 
L 51.578438 178.362843 
L 52.06465 176.014562 
L 52.550861 169.143935 
L 53.037072 165.548505 
L 53.523284 172.855504 
L 54.009495 186.952825 
L 54.495707 191.263829 
L 54.981918 187.567905 
L 55.468129 188.468661 
L 55.954341 190.316136 
L 56.440552 185.52732 
L 57.412975 161.248884 
L 57.899186 157.876721 
L 58.385398 162.882826 
L 59.35782 179.966231 
L 59.844032 186.246315 
L 60.330243 180.997472 
L 60.816454 166.818069 
L 61.302666 163.894145 
L 61.788877 165.652027 
L 62.275089 168.465613 
L 62.7613 169.746655 
L 63.247511 160.580745 
L 63.733723 155.795988 
L 64.219934 163.887393 
L 64.706145 174.835018 
L 65.192357 173.084343 
L 65.678568 165.659995 
L 66.16478 170.381909 
L 66.650991 182.501667 
L 67.137202 191.138936 
L 67.623414 190.926917 
L 68.109625 181.38622 
L 68.595836 167.387133 
L 69.082048 161.655108 
L 69.568259 166.482762 
L 70.054471 179.113152 
L 70.540682 183.364674 
L 71.026893 173.994537 
L 71.513105 162.13951 
L 71.999316 155.86224 
L 72.485527 161.32349 
L 72.971739 168.864314 
L 73.45795 169.369053 
L 73.944162 165.028617 
L 74.430373 163.399949 
L 74.916584 163.817616 
L 75.402796 162.511741 
L 75.889007 162.596899 
L 76.375218 166.59132 
L 76.86143 173.219111 
L 77.347641 174.593379 
L 77.833853 169.513529 
L 78.320064 167.492979 
L 78.806275 171.454971 
L 79.292487 173.196922 
L 80.264909 158.149141 
L 80.751121 157.264941 
L 81.237332 158.59674 
L 81.723544 156.364891 
L 82.209755 155.093258 
L 82.695966 154.826194 
L 83.182178 158.661136 
L 83.668389 164.996756 
L 84.1546 161.157014 
L 84.640812 153.439203 
L 85.127023 157.751261 
L 86.099446 188.18423 
L 86.585657 192.617693 
L 87.071869 188.058301 
L 88.044291 158.717698 
L 88.530503 158.870696 
L 89.016714 161.504083 
L 89.502926 158.628267 
L 89.989137 150.977333 
L 90.475348 148.550662 
L 91.447771 164.47035 
L 92.420194 169.123905 
L 92.906405 173.393884 
L 93.878828 187.653531 
L 94.365039 185.909995 
L 94.851251 172.583344 
L 95.337462 154.611403 
L 95.823673 149.835814 
L 96.309885 156.544092 
L 96.796096 160.329411 
L 97.282308 160.149403 
L 97.768519 160.809447 
L 98.740942 173.510312 
L 99.227153 176.498433 
L 99.713364 175.847909 
L 100.199576 174.206492 
L 101.171999 183.13229 
L 101.65821 175.354538 
L 102.144421 164.379113 
L 102.630633 166.283492 
L 103.116844 167.687877 
L 103.603055 159.927827 
L 104.089267 161.364859 
L 104.575478 171.183509 
L 105.06169 176.44457 
L 106.034112 168.015693 
L 106.520324 170.331167 
L 107.006535 171.464949 
L 107.492746 171.048743 
L 107.978958 173.506451 
L 108.951381 183.39596 
L 109.437592 183.793539 
L 109.923803 180.546515 
L 110.410015 172.509207 
L 110.896226 159.111344 
L 111.382437 150.138977 
L 111.868649 155.003399 
L 112.35486 169.663407 
L 112.841072 180.651779 
L 113.327283 179.549497 
L 113.813494 174.87704 
L 114.299706 175.228744 
L 114.785917 176.274695 
L 115.272128 177.948861 
L 115.75834 178.096692 
L 116.730763 170.497305 
L 117.216974 170.710788 
L 117.703185 180.93702 
L 118.189397 183.739042 
L 118.675608 172.218879 
L 119.161819 166.518539 
L 120.134242 161.681701 
L 120.620454 163.095561 
L 121.106665 164.987248 
L 121.592876 172.924711 
L 122.079088 182.775065 
L 122.565299 177.900207 
L 123.05151 165.911073 
L 123.537722 161.557818 
L 124.023933 159.353312 
L 124.510145 158.147604 
L 124.996356 167.368657 
L 125.482567 173.371115 
L 126.45499 164.933997 
L 126.941201 167.46791 
L 127.427413 174.215235 
L 127.913624 176.740802 
L 128.399836 173.000362 
L 128.886047 174.05113 
L 129.372258 174.359911 
L 129.85847 172.547638 
L 130.344681 168.019895 
L 130.830892 164.850898 
L 131.803315 182.389968 
L 132.289527 180.04085 
L 132.775738 177.048184 
L 133.261949 180.606684 
L 133.748161 178.694413 
L 134.234372 172.367453 
L 134.720583 174.170605 
L 135.206795 173.514235 
L 135.693006 170.226555 
L 136.665429 176.300963 
L 137.15164 175.8467 
L 137.637852 176.680736 
L 138.124063 170.984092 
L 138.610274 159.254873 
L 139.096486 153.510535 
L 139.582697 157.763397 
L 140.068909 165.111545 
L 140.55512 165.355417 
L 141.041331 165.456209 
L 141.527543 163.485744 
L 142.013754 156.360796 
L 142.499965 157.697303 
L 143.472388 187.806758 
L 143.9586 191.478869 
L 144.444811 182.776828 
L 144.931022 169.204748 
L 145.417234 161.56785 
L 146.389656 170.442942 
L 146.875868 167.470922 
L 147.362079 160.687923 
L 147.848291 151.221183 
L 148.334502 146.919868 
L 148.820713 152.875876 
L 149.306925 168.574994 
L 149.793136 178.741934 
L 150.279347 172.598714 
L 150.765559 161.098042 
L 151.25177 160.417635 
L 152.224193 188.756599 
L 152.710404 183.702848 
L 153.682827 150.060277 
L 154.169038 149.275108 
L 154.65525 156.756425 
L 155.141461 157.461037 
L 155.627673 151.545798 
L 156.113884 154.070788 
L 156.600095 164.362708 
L 157.572518 189.146286 
L 158.058729 186.503198 
L 158.544941 181.016849 
L 159.031152 178.039428 
L 159.517364 172.153857 
L 160.003575 171.380025 
L 160.489786 176.732667 
L 160.975998 176.125951 
L 161.462209 171.216032 
L 162.434632 163.34047 
L 162.920843 163.022889 
L 163.407055 169.978393 
L 163.893266 174.193693 
L 164.379477 176.033573 
L 164.865689 182.79208 
L 165.3519 186.445989 
L 166.324323 179.050409 
L 166.810534 174.192282 
L 167.296746 172.001375 
L 167.782957 174.394577 
L 168.269168 175.308699 
L 169.241591 185.320999 
L 170.700225 163.546216 
L 171.672648 183.386016 
L 172.158859 180.312686 
L 173.131282 170.700255 
L 173.617493 158.478365 
L 174.103705 152.847832 
L 175.076128 164.526803 
L 176.04855 175.487344 
L 176.534762 175.627487 
L 177.020973 171.572921 
L 177.507184 173.006832 
L 177.993396 179.239863 
L 178.479607 181.733137 
L 178.965819 182.084863 
L 179.45203 182.643887 
L 179.938241 187.679332 
L 180.424453 189.206314 
L 181.396875 178.802135 
L 182.369298 154.318809 
L 182.85551 152.644711 
L 183.341721 160.879158 
L 183.827932 176.372605 
L 184.314144 180.433806 
L 184.800355 171.450271 
L 185.286566 169.027557 
L 185.772778 174.797268 
L 186.258989 178.473671 
L 186.745201 180.548007 
L 187.231412 185.41534 
L 187.717623 187.994168 
L 188.203835 178.971282 
L 188.690046 174.973548 
L 189.176257 183.75098 
L 189.662469 189.152436 
L 190.14868 185.02157 
L 191.121103 170.098407 
L 191.607314 166.586526 
L 192.093526 166.329592 
L 192.579737 167.187465 
L 193.065948 174.285665 
L 193.55216 184.023549 
L 194.038371 185.734129 
L 194.524583 180.840386 
L 195.010794 177.383824 
L 195.983217 160.616356 
L 196.469428 156.640765 
L 196.955639 162.950059 
L 197.441851 171.257223 
L 197.928062 167.81002 
L 198.414274 165.593306 
L 198.900485 170.426396 
L 199.386696 177.963206 
L 199.872908 178.948239 
L 200.359119 178.015328 
L 200.84533 176.478723 
L 201.817753 158.442771 
L 202.303965 158.031707 
L 202.790176 160.387953 
L 203.276387 164.857511 
L 203.762599 165.069258 
L 204.24881 159.672221 
L 204.735021 160.228039 
L 205.221233 163.743376 
L 205.707444 164.979756 
L 206.193656 163.830516 
L 206.679867 162.137531 
L 207.166078 162.132568 
L 207.65229 165.844893 
L 208.138501 168.400775 
L 208.624712 168.779627 
L 209.597135 165.712092 
L 210.083347 170.861725 
L 210.569558 178.32387 
L 211.055769 178.848997 
L 211.541981 174.984587 
L 212.514403 162.869833 
L 213.000615 160.407878 
L 213.486826 161.135721 
L 213.973038 165.736844 
L 214.459249 176.745129 
L 214.94546 184.564592 
L 215.431672 182.925255 
L 215.917883 174.357745 
L 216.404094 169.833696 
L 216.890306 174.905003 
L 217.376517 178.065993 
L 217.862729 172.075959 
L 218.34894 168.828308 
L 218.835151 170.096292 
L 219.321363 166.165951 
L 220.293785 152.707683 
L 220.779997 150.548193 
L 221.75242 170.547281 
L 222.238631 171.74396 
L 222.724842 171.203492 
L 223.697265 184.560524 
L 224.669688 169.917051 
L 225.155899 169.910351 
L 225.642111 171.169223 
L 226.128322 169.828575 
L 226.614533 167.238039 
L 227.586956 157.676126 
L 228.559379 144.3851 
L 229.04559 149.363828 
L 230.504224 187.137382 
L 230.990436 187.97567 
L 231.476647 181.767735 
L 231.962858 169.815612 
L 232.44907 160.816926 
L 232.935281 163.437251 
L 233.421493 162.779988 
L 233.907704 160.610653 
L 234.880127 173.532156 
L 235.366338 171.652101 
L 235.852549 167.238035 
L 236.338761 167.489297 
L 236.824972 175.351997 
L 237.311184 180.523693 
L 237.797395 173.347783 
L 238.283606 159.864974 
L 238.769818 152.102315 
L 239.256029 159.110799 
L 239.74224 168.222332 
L 240.228452 168.673489 
L 240.714663 171.764104 
L 241.200875 172.925105 
L 241.687086 164.269641 
L 242.173297 158.332828 
L 242.659509 161.123939 
L 243.14572 165.542673 
L 243.631931 163.578848 
L 244.118143 156.84495 
L 244.604354 159.589818 
L 245.090566 170.097598 
L 245.576777 168.341112 
L 246.062988 156.083106 
L 246.5492 155.96418 
L 247.035411 169.258837 
L 247.521622 168.212188 
L 248.007834 154.976584 
L 248.494045 156.519755 
L 248.980257 168.168956 
L 249.466468 174.023189 
L 249.952679 177.488917 
L 250.438891 171.046279 
L 250.925102 160.6618 
L 251.411313 158.68496 
L 251.897525 167.536659 
L 252.383736 180.216556 
L 252.869948 183.929658 
L 253.356159 179.135296 
L 253.84237 170.708796 
L 254.328582 158.178367 
L 254.814793 153.534921 
L 255.787216 170.230711 
L 256.273427 171.290125 
L 256.759639 167.275794 
L 257.24585 164.394975 
L 257.732061 166.362229 
L 258.704484 168.919568 
L 259.190695 172.587515 
L 259.676907 174.627692 
L 260.163118 172.780982 
L 260.64933 172.312496 
L 261.135541 175.777731 
L 261.621752 173.819279 
L 262.594175 161.485776 
L 263.080386 165.548554 
L 263.566598 176.750417 
L 264.052809 183.281749 
L 264.539021 180.524062 
L 265.025232 167.641602 
L 265.511443 158.392393 
L 265.997655 169.84319 
L 266.483866 184.281596 
L 266.970077 182.108604 
L 267.456289 170.546134 
L 267.9425 166.459555 
L 268.428712 168.597327 
L 268.914923 168.203573 
L 269.887346 181.984689 
L 270.373557 177.50443 
L 271.34598 166.766125 
L 271.832191 164.580894 
L 272.318403 173.051557 
L 272.804614 178.821583 
L 273.290825 174.744093 
L 273.777037 167.787957 
L 274.263248 166.1665 
L 274.263248 166.1665 
" style="fill:none;stroke:#c371d2;stroke-width:2;"/>
   </g>
   <g id="legend_1">
    <g id="patch_5">
     <path d="M 208.004332 92.489646 
L 275.541832 92.489646 
L 275.541832 8.834646 
L 208.004332 8.834646 
z
" style="fill:#ffffff;stroke:#000000;stroke-linejoin:miter;"/>
    </g>
    <g id="line2d_15">
     <path d="M 217.604332 23.352771 
L 241.604332 23.352771 
" style="fill:none;stroke:#009afa;stroke-linejoin:miter;stroke-width:1.5;"/>
    </g>
    <g id="line2d_16"/>
    <g id="text_11">
     <!-- y1 -->
     <g transform="translate(251.204332 27.552771)scale(0.12 -0.12)">
      <defs>
       <path d="M 2059 -325 
Q 1816 -950 1584 -1140 
Q 1353 -1331 966 -1331 
L 506 -1331 
L 506 -850 
L 844 -850 
Q 1081 -850 1212 -737 
Q 1344 -625 1503 -206 
L 1606 56 
L 191 3500 
L 800 3500 
L 1894 763 
L 2988 3500 
L 3597 3500 
L 2059 -325 
z
" id="DejaVuSans-79" transform="scale(0.015625)"/>
      </defs>
      <use xlink:href="#DejaVuSans-79"/>
      <use x="59.179688" xlink:href="#DejaVuSans-31"/>
     </g>
    </g>
    <g id="line2d_17">
     <path d="M 217.604332 40.966521 
L 241.604332 40.966521 
" style="fill:none;stroke:#e36f47;stroke-linejoin:miter;stroke-width:1.5;"/>
    </g>
    <g id="line2d_18"/>
    <g id="text_12">
     <!-- y2 -->
     <g transform="translate(251.204332 45.166521)scale(0.12 -0.12)">
      <use xlink:href="#DejaVuSans-79"/>
      <use x="59.179688" xlink:href="#DejaVuSans-32"/>
     </g>
    </g>
    <g id="line2d_19">
     <path d="M 217.604332 58.580271 
L 241.604332 58.580271 
" style="fill:none;stroke:#3ea44e;stroke-linejoin:miter;stroke-width:1.5;"/>
    </g>
    <g id="line2d_20"/>
    <g id="text_13">
     <!-- y3 -->
     <g transform="translate(251.204332 62.780271)scale(0.12 -0.12)">
      <use xlink:href="#DejaVuSans-79"/>
      <use x="59.179688" xlink:href="#DejaVuSans-33"/>
     </g>
    </g>
    <g id="line2d_21">
     <path d="M 217.604332 76.194021 
L 241.604332 76.194021 
" style="fill:none;stroke:#c371d2;stroke-linejoin:miter;stroke-width:1.5;"/>
    </g>
    <g id="line2d_22"/>
    <g id="text_14">
     <!-- y4 -->
     <g transform="translate(251.204332 80.394021)scale(0.12 -0.12)">
      <use xlink:href="#DejaVuSans-79"/>
      <use x="59.179688" xlink:href="#DejaVuSans-34"/>
     </g>
    </g>
   </g>
  </g>
 </g>
 <defs>
  <clipPath id="p0ad8a4c3d8">
   <rect height="195.310709" width="257.176645" x="24.365188" y="2.834646"/>
  </clipPath>
 </defs>
</svg>
