<?xml version="1.0" encoding="utf-8" standalone="no"?>
<!DOCTYPE svg PUBLIC "-//W3C//DTD SVG 1.1//EN"
  "http://www.w3.org/Graphics/SVG/1.1/DTD/svg11.dtd">
<svg height="216pt" version="1.1" viewBox="0 0 288 216" width="288pt" xmlns="http://www.w3.org/2000/svg" xmlns:xlink="http://www.w3.org/1999/xlink">
 <metadata>
  <rdf:RDF xmlns:cc="http://creativecommons.org/ns#" xmlns:dc="http://purl.org/dc/elements/1.1/" xmlns:rdf="http://www.w3.org/1999/02/22-rdf-syntax-ns#">
   <cc:Work>
    <dc:type rdf:resource="http://purl.org/dc/dcmitype/StillImage"/>
    <dc:date>2022-06-28T16:20:03.178685</dc:date>
    <dc:format>image/svg+xml</dc:format>
    <dc:creator>
     <cc:Agent>
      <dc:title>Matplotlib v3.4.2, https://matplotlib.org/</dc:title>
     </cc:Agent>
    </dc:creator>
   </cc:Work>
  </rdf:RDF>
 </metadata>
 <defs>
  <style type="text/css">*{stroke-linecap:butt;stroke-linejoin:round;}</style>
 </defs>
 <g id="figure_1">
  <g id="patch_1">
   <path d="M 0 216 
L 288 216 
L 288 0 
L 0 0 
z
" style="fill:#ffffff;"/>
  </g>
  <g id="axes_1">
   <g id="patch_2">
    <path d="M 22.249111 198.145354 
L 281.541832 198.145354 
L 281.541832 2.834646 
L 22.249111 2.834646 
z
" style="fill:#ffffff;"/>
   </g>
   <g id="PathCollection_1">
    <defs>
     <path d="M 0 4 
C 1.060812 4 2.078319 3.578535 2.828427 2.828427 
C 3.578535 2.078319 4 1.060812 4 0 
C 4 -1.060812 3.578535 -2.078319 2.828427 -2.828427 
C 2.078319 -3.578535 1.060812 -4 0 -4 
C -1.060812 -4 -2.078319 -3.578535 -2.828427 -2.828427 
C -3.578535 -2.078319 -4 -1.060812 -4 0 
C -4 1.060812 -3.578535 2.078319 -2.828427 2.828427 
C -2.078319 3.578535 -1.060812 4 0 4 
z
" id="m444aba9aa3" style="stroke:#000000;"/>
    </defs>
    <g clip-path="url(#p52e9a6cbfc)">
     <use style="fill:#0000ff;stroke:#000000;" x="224.786031" xlink:href="#m444aba9aa3" y="190.406351"/>
     <use style="fill:#0000ff;stroke:#000000;" x="224.786031" xlink:href="#m444aba9aa3" y="145.446537"/>
     <use style="fill:#0000ff;stroke:#000000;" x="224.786031" xlink:href="#m444aba9aa3" y="119.929435"/>
     <use style="fill:#0000ff;stroke:#000000;" x="224.786031" xlink:href="#m444aba9aa3" y="74.217554"/>
     <use style="fill:#0000ff;stroke:#000000;" x="224.786031" xlink:href="#m444aba9aa3" y="8.362307"/>
    </g>
   </g>
   <g id="matplotlib.axis_1">
    <g id="xtick_1">
     <g id="line2d_1">
      <defs>
       <path d="M 0 0 
L 0 -2.5 
" id="m8a0ef6ca88" style="stroke:#000000;stroke-width:0.5;"/>
      </defs>
      <g>
       <use style="stroke:#000000;stroke-width:0.5;" x="27.116718" xlink:href="#m8a0ef6ca88" y="198.145354"/>
      </g>
     </g>
     <g id="text_1">
      <!-- $\mathregular{0}$ -->
      <g transform="translate(23.276718 210.763479)scale(0.12 -0.12)">
       <defs>
        <path d="M 2034 4250 
Q 1547 4250 1301 3770 
Q 1056 3291 1056 2328 
Q 1056 1369 1301 889 
Q 1547 409 2034 409 
Q 2525 409 2770 889 
Q 3016 1369 3016 2328 
Q 3016 3291 2770 3770 
Q 2525 4250 2034 4250 
z
M 2034 4750 
Q 2819 4750 3233 4129 
Q 3647 3509 3647 2328 
Q 3647 1150 3233 529 
Q 2819 -91 2034 -91 
Q 1250 -91 836 529 
Q 422 1150 422 2328 
Q 422 3509 836 4129 
Q 1250 4750 2034 4750 
z
" id="DejaVuSans-30" transform="scale(0.015625)"/>
       </defs>
       <use transform="translate(0 0.78125)" xlink:href="#DejaVuSans-30"/>
      </g>
     </g>
    </g>
    <g id="xtick_2">
     <g id="line2d_2">
      <g>
       <use style="stroke:#000000;stroke-width:0.5;" x="88.888378" xlink:href="#m8a0ef6ca88" y="198.145354"/>
      </g>
     </g>
     <g id="text_2">
      <!-- $\mathregular{25}$ -->
      <g transform="translate(81.208378 210.763479)scale(0.12 -0.12)">
       <defs>
        <path d="M 1228 531 
L 3431 531 
L 3431 0 
L 469 0 
L 469 531 
Q 828 903 1448 1529 
Q 2069 2156 2228 2338 
Q 2531 2678 2651 2914 
Q 2772 3150 2772 3378 
Q 2772 3750 2511 3984 
Q 2250 4219 1831 4219 
Q 1534 4219 1204 4116 
Q 875 4013 500 3803 
L 500 4441 
Q 881 4594 1212 4672 
Q 1544 4750 1819 4750 
Q 2544 4750 2975 4387 
Q 3406 4025 3406 3419 
Q 3406 3131 3298 2873 
Q 3191 2616 2906 2266 
Q 2828 2175 2409 1742 
Q 1991 1309 1228 531 
z
" id="DejaVuSans-32" transform="scale(0.015625)"/>
        <path d="M 691 4666 
L 3169 4666 
L 3169 4134 
L 1269 4134 
L 1269 2991 
Q 1406 3038 1543 3061 
Q 1681 3084 1819 3084 
Q 2600 3084 3056 2656 
Q 3513 2228 3513 1497 
Q 3513 744 3044 326 
Q 2575 -91 1722 -91 
Q 1428 -91 1123 -41 
Q 819 9 494 109 
L 494 744 
Q 775 591 1075 516 
Q 1375 441 1709 441 
Q 2250 441 2565 725 
Q 2881 1009 2881 1497 
Q 2881 1984 2565 2268 
Q 2250 2553 1709 2553 
Q 1456 2553 1204 2497 
Q 953 2441 691 2322 
L 691 4666 
z
" id="DejaVuSans-35" transform="scale(0.015625)"/>
       </defs>
       <use transform="translate(0 0.78125)" xlink:href="#DejaVuSans-32"/>
       <use transform="translate(63.623047 0.78125)" xlink:href="#DejaVuSans-35"/>
      </g>
     </g>
    </g>
    <g id="xtick_3">
     <g id="line2d_3">
      <g>
       <use style="stroke:#000000;stroke-width:0.5;" x="150.660038" xlink:href="#m8a0ef6ca88" y="198.145354"/>
      </g>
     </g>
     <g id="text_3">
      <!-- $\mathregular{50}$ -->
      <g transform="translate(142.980038 210.763479)scale(0.12 -0.12)">
       <use transform="translate(0 0.78125)" xlink:href="#DejaVuSans-35"/>
       <use transform="translate(63.623047 0.78125)" xlink:href="#DejaVuSans-30"/>
      </g>
     </g>
    </g>
    <g id="xtick_4">
     <g id="line2d_4">
      <g>
       <use style="stroke:#000000;stroke-width:0.5;" x="212.431699" xlink:href="#m8a0ef6ca88" y="198.145354"/>
      </g>
     </g>
     <g id="text_4">
      <!-- $\mathregular{75}$ -->
      <g transform="translate(204.751699 210.763479)scale(0.12 -0.12)">
       <defs>
        <path d="M 525 4666 
L 3525 4666 
L 3525 4397 
L 1831 0 
L 1172 0 
L 2766 4134 
L 525 4134 
L 525 4666 
z
" id="DejaVuSans-37" transform="scale(0.015625)"/>
       </defs>
       <use transform="translate(0 0.09375)" xlink:href="#DejaVuSans-37"/>
       <use transform="translate(63.623047 0.09375)" xlink:href="#DejaVuSans-35"/>
      </g>
     </g>
    </g>
    <g id="xtick_5">
     <g id="line2d_5">
      <g>
       <use style="stroke:#000000;stroke-width:0.5;" x="274.203359" xlink:href="#m8a0ef6ca88" y="198.145354"/>
      </g>
     </g>
     <g id="text_5">
      <!-- $\mathregular{100}$ -->
      <g transform="translate(262.743359 210.763479)scale(0.12 -0.12)">
       <defs>
        <path d="M 794 531 
L 1825 531 
L 1825 4091 
L 703 3866 
L 703 4441 
L 1819 4666 
L 2450 4666 
L 2450 531 
L 3481 531 
L 3481 0 
L 794 0 
L 794 531 
z
" id="DejaVuSans-31" transform="scale(0.015625)"/>
       </defs>
       <use transform="translate(0 0.78125)" xlink:href="#DejaVuSans-31"/>
       <use transform="translate(63.623047 0.78125)" xlink:href="#DejaVuSans-30"/>
       <use transform="translate(127.246094 0.78125)" xlink:href="#DejaVuSans-30"/>
      </g>
     </g>
    </g>
   </g>
   <g id="matplotlib.axis_2">
    <g id="ytick_1">
     <g id="line2d_6">
      <defs>
       <path d="M 0 0 
L 2.5 0 
" id="m8115495b02" style="stroke:#000000;stroke-width:0.5;"/>
      </defs>
      <g>
       <use style="stroke:#000000;stroke-width:0.5;" x="22.249111" xlink:href="#m8115495b02" y="175.241144"/>
      </g>
     </g>
     <g id="text_6">
      <!-- $\mathregular{5}$ -->
      <g transform="translate(11.069111 179.800206)scale(0.12 -0.12)">
       <use transform="translate(0 0.09375)" xlink:href="#DejaVuSans-35"/>
      </g>
     </g>
    </g>
    <g id="ytick_2">
     <g id="line2d_7">
      <g>
       <use style="stroke:#000000;stroke-width:0.5;" x="22.249111" xlink:href="#m8115495b02" y="137.920816"/>
      </g>
     </g>
     <g id="text_7">
      <!-- $\mathregular{10}$ -->
      <g transform="translate(3.389111 142.479879)scale(0.12 -0.12)">
       <use transform="translate(0 0.78125)" xlink:href="#DejaVuSans-31"/>
       <use transform="translate(63.623047 0.78125)" xlink:href="#DejaVuSans-30"/>
      </g>
     </g>
    </g>
    <g id="ytick_3">
     <g id="line2d_8">
      <g>
       <use style="stroke:#000000;stroke-width:0.5;" x="22.249111" xlink:href="#m8115495b02" y="100.600489"/>
      </g>
     </g>
     <g id="text_8">
      <!-- $\mathregular{15}$ -->
      <g transform="translate(3.389111 105.159551)scale(0.12 -0.12)">
       <use transform="translate(0 0.09375)" xlink:href="#DejaVuSans-31"/>
       <use transform="translate(63.623047 0.09375)" xlink:href="#DejaVuSans-35"/>
      </g>
     </g>
    </g>
    <g id="ytick_4">
     <g id="line2d_9">
      <g>
       <use style="stroke:#000000;stroke-width:0.5;" x="22.249111" xlink:href="#m8115495b02" y="63.280161"/>
      </g>
     </g>
     <g id="text_9">
      <!-- $\mathregular{20}$ -->
      <g transform="translate(3.389111 67.839224)scale(0.12 -0.12)">
       <use transform="translate(0 0.78125)" xlink:href="#DejaVuSans-32"/>
       <use transform="translate(63.623047 0.78125)" xlink:href="#DejaVuSans-30"/>
      </g>
     </g>
    </g>
    <g id="ytick_5">
     <g id="line2d_10">
      <g>
       <use style="stroke:#000000;stroke-width:0.5;" x="22.249111" xlink:href="#m8115495b02" y="25.959834"/>
      </g>
     </g>
     <g id="text_10">
      <!-- $\mathregular{25}$ -->
      <g transform="translate(3.389111 30.518896)scale(0.12 -0.12)">
       <use transform="translate(0 0.78125)" xlink:href="#DejaVuSans-32"/>
       <use transform="translate(63.623047 0.78125)" xlink:href="#DejaVuSans-35"/>
      </g>
     </g>
    </g>
   </g>
   <g id="line2d_11">
    <path clip-path="url(#p52e9a6cbfc)" d="M 29.587584 174.94555 
L 32.058451 177.602125 
L 34.529317 177.285465 
L 37.000183 175.222816 
L 39.47105 173.030751 
L 41.941916 171.909103 
L 44.412783 172.373515 
L 46.883649 174.149081 
L 49.354516 176.365273 
L 51.825382 178.237074 
L 54.296248 179.776907 
L 56.767115 181.757651 
L 59.237981 184.786118 
L 61.708848 188.34619 
L 64.179714 190.783461 
L 66.65058 190.362018 
L 69.121447 186.750387 
L 71.592313 181.703875 
L 74.06318 177.902821 
L 76.534046 176.760974 
L 79.004913 177.519706 
L 81.475779 178.457613 
L 83.946645 178.555878 
L 86.417512 178.032249 
L 88.888378 177.828039 
L 91.359245 178.631561 
L 93.830111 179.991977 
L 96.300977 180.494359 
L 98.771844 179.229601 
L 101.24271 176.937294 
L 103.713577 175.325225 
L 106.184443 175.481449 
L 108.655309 177.178052 
L 111.126176 179.314941 
L 113.597042 180.668895 
L 116.067909 180.486485 
L 118.538775 178.789674 
L 121.009642 176.297161 
L 123.480508 174.030612 
L 125.951374 172.771491 
L 128.422241 172.637173 
L 130.893107 173.177001 
L 133.363974 174.023988 
L 135.83484 175.482023 
L 138.305706 178.371191 
L 140.776573 183.063418 
L 143.247439 188.414603 
L 145.718306 191.782504 
L 148.189172 190.727581 
L 150.660038 185.117103 
L 153.130905 177.408943 
L 155.601771 170.617253 
L 158.072638 166.07998 
L 160.543504 163.237532 
L 163.014371 161.046004 
L 165.485237 159.117851 
L 167.956103 157.843454 
L 170.42697 157.910166 
L 172.897836 159.557788 
L 175.368703 162.147072 
L 177.839569 164.692652 
L 180.310435 166.75217 
L 182.781302 168.413041 
L 185.252168 169.621887 
L 187.723035 170.102566 
L 190.193901 169.993604 
L 192.664768 170.167024 
L 195.135634 171.636249 
L 197.6065 174.563614 
L 200.077367 177.860807 
L 202.548233 179.94258 
L 205.0191 180.052735 
L 207.489966 178.759301 
L 209.960832 177.175552 
L 212.431699 175.990502 
L 214.902565 175.237156 
L 217.373432 174.631352 
L 219.844298 173.93645 
L 222.315164 173.013886 
L 224.786031 171.732118 
L 227.256897 170.114145 
L 229.727764 168.623101 
L 232.19863 168.189944 
L 234.669497 169.776047 
L 237.140363 173.566162 
L 239.611229 178.458308 
L 242.082096 182.633301 
L 244.552962 184.823481 
L 247.023829 185.0638 
L 249.494695 184.457071 
L 251.965561 184.339962 
L 254.436428 185.298108 
L 256.907294 186.770701 
L 259.378161 187.846409 
L 261.849027 188.439709 
L 264.319893 189.308265 
L 266.79076 190.860727 
L 269.261626 192.369124 
L 271.732493 192.617693 
L 274.203359 191.069443 
" style="fill:none;stroke:#0000ff;stroke-width:2;"/>
   </g>
   <g id="patch_3">
    <path d="M 22.249111 198.145354 
L 22.249111 2.834646 
" style="fill:none;stroke:#000000;stroke-linecap:square;stroke-linejoin:miter;"/>
   </g>
   <g id="patch_4">
    <path d="M 22.249111 198.145354 
L 281.541832 198.145354 
" style="fill:none;stroke:#000000;stroke-linecap:square;stroke-linejoin:miter;"/>
   </g>
   <g id="line2d_12">
    <path clip-path="url(#p52e9a6cbfc)" d="M 29.587584 133.892765 
L 32.058451 131.719071 
L 34.529317 130.815366 
L 37.000183 131.165477 
L 39.47105 131.872729 
L 41.941916 132.223857 
L 44.412783 132.643884 
L 46.883649 134.267564 
L 49.354516 137.610224 
L 51.825382 141.78718 
L 54.296248 145.025518 
L 56.767115 145.997737 
L 59.237981 144.834782 
L 61.708848 142.869001 
L 64.179714 141.242803 
L 66.65058 139.829676 
L 69.121447 137.786866 
L 71.592313 134.975572 
L 74.06318 132.442262 
L 76.534046 131.676625 
L 79.004913 133.588838 
L 81.475779 137.753979 
L 83.946645 142.390751 
L 86.417512 145.409116 
L 88.888378 145.705865 
L 91.359245 143.570972 
L 93.830111 140.370237 
L 96.300977 138.019297 
L 98.771844 137.931053 
L 101.24271 139.773619 
L 103.713577 141.671173 
L 106.184443 142.205154 
L 108.655309 141.940433 
L 111.126176 142.408775 
L 113.597042 143.767687 
L 116.067909 144.22048 
L 118.538775 141.977481 
L 121.009642 137.251161 
L 123.480508 132.049253 
L 125.951374 128.454656 
L 128.422241 127.347848 
L 130.893107 128.235015 
L 133.363974 129.761855 
L 135.83484 130.640273 
L 138.305706 130.707453 
L 140.776573 131.122436 
L 143.247439 133.043255 
L 145.718306 136.195068 
L 148.189172 139.365588 
L 150.660038 142.066711 
L 153.130905 144.640472 
L 155.601771 146.656674 
L 158.072638 146.447721 
L 160.543504 142.995596 
L 163.014371 137.737794 
L 165.485237 133.79474 
L 167.956103 133.443138 
L 170.42697 136.567455 
L 172.897836 141.231394 
L 175.368703 145.212231 
L 177.839569 147.136806 
L 180.310435 146.917247 
L 182.781302 145.676433 
L 185.252168 145.085267 
L 187.723035 146.146397 
L 190.193901 148.309592 
L 192.664768 149.953422 
L 195.135634 149.902663 
L 197.6065 148.500365 
L 200.077367 147.20499 
L 202.548233 147.152711 
L 205.0191 148.193297 
L 207.489966 149.289316 
L 209.960832 149.522132 
L 212.431699 148.486549 
L 214.902565 146.008348 
L 217.373432 141.969894 
L 219.844298 136.648776 
L 222.315164 131.059562 
L 224.786031 126.578668 
L 227.256897 124.053873 
L 229.727764 123.503031 
L 232.19863 124.726554 
L 234.669497 127.765782 
L 237.140363 132.40781 
L 239.611229 137.502343 
L 242.082096 141.362416 
L 244.552962 142.982941 
L 247.023829 142.492315 
L 249.494695 140.5465 
L 251.965561 137.888948 
L 254.436428 135.379813 
L 256.907294 133.780627 
L 259.378161 133.300199 
L 261.849027 133.519166 
L 264.319893 133.853229 
L 266.79076 134.043558 
L 269.261626 134.078746 
L 271.732493 133.882145 
L 274.203359 133.574278 
" style="fill:none;stroke:#0000ff;stroke-width:2;"/>
   </g>
   <g id="line2d_13">
    <path clip-path="url(#p52e9a6cbfc)" d="M 29.587584 110.319226 
L 32.058451 113.281742 
L 34.529317 113.826213 
L 37.000183 112.259113 
L 39.47105 109.51828 
L 41.941916 106.409883 
L 44.412783 103.172755 
L 46.883649 99.923836 
L 49.354516 97.320788 
L 51.825382 96.428822 
L 54.296248 97.720792 
L 56.767115 100.404831 
L 59.237981 103.085228 
L 61.708848 105.070765 
L 64.179714 106.675232 
L 66.65058 108.321531 
L 69.121447 109.961992 
L 71.592313 111.459494 
L 74.06318 112.865127 
L 76.534046 113.920207 
L 79.004913 113.730584 
L 81.475779 111.612887 
L 83.946645 108.250121 
L 86.417512 105.371304 
L 88.888378 104.160605 
L 91.359245 104.517408 
L 93.830111 105.672954 
L 96.300977 106.522995 
L 98.771844 105.497271 
L 101.24271 101.586572 
L 103.713577 95.965236 
L 106.184443 91.582706 
L 108.655309 90.724376 
L 111.126176 93.440285 
L 113.597042 98.131758 
L 116.067909 102.859461 
L 118.538775 106.192788 
L 121.009642 107.705686 
L 123.480508 108.026309 
L 125.951374 108.087621 
L 128.422241 108.100327 
L 130.893107 107.419402 
L 133.363974 105.494349 
L 135.83484 102.671229 
L 138.305706 99.817063 
L 140.776573 97.406294 
L 143.247439 95.395812 
L 145.718306 93.873049 
L 148.189172 93.297738 
L 150.660038 94.009337 
L 153.130905 95.876486 
L 155.601771 98.440255 
L 158.072638 100.908259 
L 160.543504 101.981613 
L 163.014371 100.527139 
L 165.485237 96.919776 
L 167.956103 93.131049 
L 170.42697 90.981197 
L 172.897836 90.685677 
L 175.368703 91.358256 
L 177.839569 92.334906 
L 180.310435 93.513629 
L 182.781302 94.784264 
L 185.252168 95.690736 
L 187.723035 95.669504 
L 190.193901 94.483237 
L 192.664768 92.630313 
L 195.135634 91.38895 
L 197.6065 92.013561 
L 200.077367 94.653001 
L 202.548233 98.264168 
L 205.0191 101.636305 
L 207.489966 104.342937 
L 209.960832 106.613808 
L 212.431699 108.298054 
L 214.902565 108.371725 
L 217.373432 106.030829 
L 219.844298 102.075135 
L 222.315164 98.527578 
L 224.786031 96.894607 
L 227.256897 97.27496 
L 229.727764 99.074286 
L 232.19863 101.836432 
L 234.669497 104.892832 
L 237.140363 106.724493 
L 239.611229 105.660571 
L 242.082096 101.442669 
L 244.552962 95.747405 
L 247.023829 91.277897 
L 249.494695 90.40802 
L 251.965561 93.831801 
L 254.436428 99.794105 
L 256.907294 105.088245 
L 259.378161 107.454414 
L 261.849027 107.105324 
L 264.319893 106.019558 
L 266.79076 106.042034 
L 269.261626 107.660602 
L 271.732493 110.310443 
L 274.203359 113.456662 
" style="fill:none;stroke:#0000ff;stroke-width:2;"/>
   </g>
   <g id="line2d_14">
    <path clip-path="url(#p52e9a6cbfc)" d="M 29.587584 56.51398 
L 32.058451 59.660419 
L 34.529317 62.309974 
L 37.000183 63.432908 
L 39.47105 63.090513 
L 41.941916 62.294342 
L 44.412783 62.017446 
L 46.883649 62.497412 
L 49.354516 63.360533 
L 51.825382 64.011782 
L 54.296248 63.948269 
L 56.767115 63.088513 
L 59.237981 62.038783 
L 61.708848 62.019591 
L 64.179714 64.12745 
L 66.65058 68.165592 
L 69.121447 72.37195 
L 71.592313 74.847172 
L 74.06318 75.263623 
L 76.534046 74.845509 
L 79.004913 74.752644 
L 81.475779 74.843343 
L 83.946645 74.110532 
L 86.417512 72.112872 
L 88.888378 69.660154 
L 91.359245 67.981716 
L 93.830111 67.569422 
L 96.300977 68.052351 
L 98.771844 68.817084 
L 101.24271 69.492855 
L 103.713577 70.082772 
L 106.184443 70.699962 
L 108.655309 71.082214 
L 111.126176 70.587615 
L 113.597042 68.801205 
L 116.067909 65.833177 
L 118.538775 61.929998 
L 121.009642 57.252145 
L 123.480508 52.333569 
L 125.951374 48.497302 
L 128.422241 47.325147 
L 130.893107 49.476389 
L 133.363974 54.178418 
L 135.83484 59.93899 
L 138.305706 65.383909 
L 140.776573 69.323337 
L 143.247439 70.719867 
L 145.718306 69.277914 
L 148.189172 66.074332 
L 150.660038 63.346125 
L 153.130905 63.298705 
L 155.601771 66.606397 
L 158.072638 71.740155 
L 160.543504 75.791471 
L 163.014371 76.170507 
L 165.485237 72.112498 
L 167.956103 65.259917 
L 170.42697 58.694536 
L 172.897836 54.84232 
L 175.368703 54.105836 
L 177.839569 55.26573 
L 180.310435 56.722965 
L 182.781302 57.466897 
L 185.252168 57.470335 
L 187.723035 57.435693 
L 190.193901 58.121197 
L 192.664768 59.814725 
L 195.135634 62.142925 
L 197.6065 64.083716 
L 200.077367 64.455925 
L 202.548233 63.001595 
L 205.0191 61.028246 
L 207.489966 60.391567 
L 209.960832 61.528627 
L 212.431699 62.917221 
L 214.902565 62.871946 
L 217.373432 61.498471 
L 219.844298 60.413685 
L 222.315164 60.868411 
L 224.786031 62.637112 
L 227.256897 64.569477 
L 229.727764 65.751416 
L 232.19863 65.971151 
L 234.669497 65.344775 
L 237.140363 64.048909 
L 239.611229 62.560132 
L 242.082096 61.647539 
L 244.552962 61.765146 
L 247.023829 62.645769 
L 249.494695 63.59835 
L 251.965561 63.912022 
L 254.436428 63.029687 
L 256.907294 61.058871 
L 259.378161 59.302232 
L 261.849027 59.382848 
L 264.319893 61.484112 
L 266.79076 64.173868 
L 269.261626 66.054328 
L 271.732493 66.82719 
L 274.203359 66.746967 
" style="fill:none;stroke:#0000ff;stroke-width:2;"/>
   </g>
   <g id="line2d_15">
    <path clip-path="url(#p52e9a6cbfc)" d="M 29.587584 29.403221 
L 32.058451 27.954996 
L 34.529317 27.528696 
L 37.000183 28.312628 
L 39.47105 29.837862 
L 41.941916 31.848154 
L 44.412783 34.279691 
L 46.883649 36.483868 
L 49.354516 37.380547 
L 51.825382 36.380578 
L 54.296248 33.703118 
L 56.767115 30.179331 
L 59.237981 27.048971 
L 61.708848 25.363952 
L 64.179714 25.223909 
L 66.65058 25.785658 
L 69.121447 26.045939 
L 71.592313 25.533761 
L 74.06318 24.481235 
L 76.534046 23.425605 
L 79.004913 22.430861 
L 81.475779 20.892501 
L 83.946645 18.576988 
L 86.417512 16.513524 
L 88.888378 16.089822 
L 91.359245 17.480971 
L 93.830111 19.719108 
L 96.300977 22.200307 
L 98.771844 25.437296 
L 101.24271 30.140809 
L 103.713577 35.761083 
L 106.184443 40.118103 
L 108.655309 40.83814 
L 111.126176 37.48931 
L 113.597042 32.168527 
L 116.067909 27.745846 
L 118.538775 25.559082 
L 121.009642 24.839476 
L 123.480508 24.0672 
L 125.951374 22.410634 
L 128.422241 19.888888 
L 130.893107 16.896217 
L 133.363974 14.180027 
L 135.83484 12.889745 
L 138.305706 13.82761 
L 140.776573 16.461828 
L 143.247439 19.096811 
L 145.718306 20.407192 
L 148.189172 20.853024 
L 150.660038 22.367452 
L 153.130905 26.495714 
L 155.601771 32.873551 
L 158.072638 39.457488 
L 160.543504 44.033713 
L 163.014371 45.514457 
L 165.485237 44.213592 
L 167.956103 41.294133 
L 170.42697 37.964723 
L 172.897836 35.032702 
L 175.368703 32.940084 
L 177.839569 31.731274 
L 180.310435 30.873586 
L 182.781302 29.642788 
L 185.252168 27.852541 
L 187.723035 25.827162 
L 190.193901 23.788382 
L 192.664768 21.742769 
L 195.135634 19.760918 
L 197.6065 17.995529 
L 200.077367 16.64885 
L 202.548233 16.046144 
L 205.0191 16.452858 
L 207.489966 17.798289 
L 209.960832 19.698472 
L 212.431699 21.642149 
L 214.902565 23.162783 
L 217.373432 24.014153 
L 219.844298 24.201029 
L 222.315164 23.858284 
L 224.786031 23.196582 
L 227.256897 22.462211 
L 229.727764 21.805049 
L 232.19863 21.371515 
L 234.669497 21.679033 
L 237.140363 23.42756 
L 239.611229 26.42128 
L 242.082096 29.099857 
L 244.552962 29.871951 
L 247.023829 28.646013 
L 249.494695 26.534491 
L 251.965561 24.612056 
L 254.436428 23.60006 
L 256.907294 24.050743 
L 259.378161 25.943155 
L 261.849027 28.359906 
L 264.319893 30.047934 
L 266.79076 30.092658 
L 269.261626 27.976789 
L 271.732493 23.606216 
L 274.203359 17.738707 
" style="fill:none;stroke:#0000ff;stroke-width:2;"/>
   </g>
  </g>
 </g>
 <defs>
  <clipPath id="p52e9a6cbfc">
   <rect height="195.310709" width="259.292721" x="22.249111" y="2.834646"/>
  </clipPath>
 </defs>
</svg>
